PathFileType	4	(x/y/z)	S08_M20_T09
DataRate	CameraRate	NumFrames	NumMarkers	Units	OrigDataRate	OrigDataStartFrame	OrigNumFrames
240	240	4	51	mm	240	128	510
Frame#	Time	Sternum			R.Acromium			L.Acromium			Top.Head			R.ASIS			L.ASIS			R.PSIS			L.PSIS			R.Great.Tro			L.Great.Tro			R.Iliac.Crest			L.Iliac.Crest			V.Sacral			R.Thigh.Upper.Post			R.Thigh.Lower.Ant			R.Thigh.Lower.Post			R.Thigh.Upper.Ant			R.Knee.Lat			R.Knee.Med			R.Shank.Upper.Post			R.Shank.Lower.Ant			R.Shank.Lower.Post			R.Shank.Upper.Ant			R.Ankle.Lat			R.Ankle.Med			R.Heel.Upper			R.Heel.Med			R.Heel.Lat			R.Toe.Lat			R.Toe.Med			R.Toe.Tip			L.Thigh.Upper.Post			L.Thigh.Lower.Ant			L.Thigh.Lower.Post			L.Thigh.Upper.Ant			L.Knee.Lat			L.Knee.Med			L.Shank.Upper.Post			L.Shank.Lower.Ant			L.Shank.Lower.Post			L.Shank.Upper.Ant			L.Ankle.Lat			L.Ankle.Med			L.Heel.Upper			L.Heel.Med			L.Heel.Lat			L.Toe.Lat			L.Toe.Med			L.Toe.Tip			Cervical.Spine			Back			
		X1	Y1	Z1	X2	Y2	Z2	X3	Y3	Z3	X4	Y4	Z4	X5	Y5	Z5	X6	Y6	Z6	X7	Y7	Z7	X8	Y8	Z8	X9	Y9	Z9	X10	Y10	Z10	X11	Y11	Z11	X12	Y12	Z12	X13	Y13	Z13	X14	Y14	Z14	X15	Y15	Z15	X16	Y16	Z16	X17	Y17	Z17	X18	Y18	Z18	X19	Y19	Z19	X20	Y20	Z20	X21	Y21	Z21	X22	Y22	Z22	X23	Y23	Z23	X24	Y24	Z24	X25	Y25	Z25	X26	Y26	Z26	X27	Y27	Z27	X28	Y28	Z28	X29	Y29	Z29	X30	Y30	Z30	X31	Y31	Z31	X32	Y32	Z32	X33	Y33	Z33	X34	Y34	Z34	X35	Y35	Z35	X36	Y36	Z36	X37	Y37	Z37	X38	Y38	Z38	X39	Y39	Z39	X40	Y40	Z40	X41	Y41	Z41	X42	Y42	Z42	X43	Y43	Z43	X44	Y44	Z44	X45	Y45	Z45	X46	Y46	Z46	X47	Y47	Z47	X48	Y48	Z48	X49	Y49	Z49	X50	Y50	Z50	X51	Y51	Z51	

128	0.52917	-938.68	1219.9	322.85	-1062.1	1449.9	500.91	-1066.9	1487.2	168.06	-1029.7	1774.6	351.14	-941.76	1010	428.6	-948.14	1011.2	195.04	NaN	NaN	NaN	NaN	NaN	NaN	-994.27	896.66	502.26	-1053.1	909.65	134.58	-1039.8	1072.4	481.52	-1051.3	1092.1	171.75	-1165.9	991.31	317.32	-931.91	701.82	491.61	-821.87	643.19	451.97	-888.44	622.63	470.48	-859.88	729.66	473.21	-810.68	546.9	449.33	-843.13	534.31	325.15	-821.88	355.83	464.13	-747.37	311.17	439.9	-802.3	281.51	458.46	-767.04	386.6	449.13	-754.85	116	426.2	-732	140.82	347.25	-785.96	63.445	377.34	-763.17	43.435	350.34	-772.24	42.016	411.5	NaN	NaN	NaN	-593.83	117.76	343.23	-543.88	159.68	389.61	-1109.2	714.27	151.43	-1046	608.38	182	-1111.3	624.07	171.57	-1041.8	694.25	155.9	-1126.2	518.47	198.67	-1126.6	521.9	323.96	-1231.1	359.19	199.54	-1192.4	259.05	230.94	-1251.8	292.66	216.07	-1176.5	329.31	212.39	-1284.7	119.04	247.13	-1266.2	119.82	333.09	-1344.3	94.636	294.81	-1338.8	62.041	325.06	-1340.4	70.614	261.78	-1167.4	40.42	230.46	-1151.1	37.475	346.59	-1083.7	45.047	298.96	-1127.3	1512.1	327.07	-1179.3	1228.1	328.43
129	0.53333	-933.34	1219.2	322.95	-1056.5	1449.2	501.19	-1061.5	1486.6	168.4	-1024.4	1773.9	351.45	-936.15	1009.3	428.58	-943.07	1010.5	195.01	NaN	NaN	NaN	NaN	NaN	NaN	-988.54	896.03	502.33	-1048.5	909.15	134.73	-1034.1	1071.8	481.67	-1046.3	1091.4	171.91	-1160.6	990.7	317.79	-926.72	701.01	491.72	-816.84	642.18	451.9	-883.42	621.74	470.53	-854.64	728.72	473.25	-805.6	546.11	449.22	-838.42	533.29	325.14	-813.88	354.86	463.88	-738.68	311.49	439.39	-793.09	280.89	458.02	-759.57	386.61	448.84	-742.66	116.14	425.31	-720.49	141.53	346.34	-772.97	63.097	376.41	-749.82	43.501	349.32	-758.72	41.805	410.51	NaN	NaN	NaN	-581.89	120.98	341.95	-532.63	163.79	388.33	-1105.6	714.18	151.51	-1042.8	607.96	181.88	-1107.9	624.02	171.51	-1038.2	693.81	155.85	-1123.5	518.43	198.62	-1123.7	521.78	323.94	-1229.3	359.74	199.52	-1191.1	259.36	230.81	-1250.3	293.37	215.98	-1175	329.49	212.36	-1284.4	119.6	247.09	-1265.6	120.49	333.01	-1343.9	95.518	294.66	-1338.5	63.042	325.02	-1340.1	71.527	261.73	-1167.4	40.382	230.43	-1151	37.607	346.55	-1083.6	44.944	298.92	-1121.9	1511.4	327.37	-1173.8	1227.5	328.71
130	0.5375	-927.98	1218.6	323.07	-1050.9	1448.5	501.48	-1056.1	1486.1	168.75	-1019.1	1773.3	351.77	-930.51	1008.7	428.55	-937.97	1009.8	194.96	NaN	NaN	NaN	NaN	NaN	NaN	-982.77	895.39	502.4	-1043.8	908.63	134.88	-1028.3	1071.1	481.82	-1041.2	1090.7	172.08	-1155.3	990.08	318.25	-921.52	700.19	491.82	-811.82	641.16	451.84	-878.41	620.84	470.58	-849.4	727.76	473.29	-800.53	545.3	449.12	-833.7	532.25	325.14	-806	353.91	463.62	-730.13	311.8	438.9	-784.04	280.3	457.56	-752.21	386.61	448.58	-730.73	116.32	424.4	-709.2	142.27	345.42	-760.26	62.829	375.46	-736.76	43.642	348.27	-745.5	41.669	409.48	NaN	NaN	NaN	-570.23	124.16	340.72	-521.66	167.8	387.12	-1102	714.07	151.64	-1039.5	607.55	181.77	-1104.6	623.97	171.48	-1034.6	693.37	155.81	-1120.8	518.39	198.59	-1120.7	521.66	323.92	-1227.4	360.31	199.52	-1189.8	259.68	230.7	-1248.8	294.1	215.9	-1173.4	329.67	212.35	-1284.1	120.19	247.04	-1264.9	121.18	332.94	-1343.5	96.456	294.54	-1338.2	64.074	324.99	-1339.8	72.48	261.69	-1167.4	40.35	230.41	-1150.9	37.741	346.52	-1083.4	44.841	298.88	-1116.5	1510.8	327.67	-1168.3	1226.8	329
131	0.54167	-922.59	1217.9	323.19	-1045.4	1447.9	501.77	-1050.6	1485.5	169.11	-1013.8	1772.6	352.1	-924.84	1008.1	428.53	-932.84	1009.1	194.92	NaN	NaN	NaN	NaN	NaN	NaN	-976.96	894.74	502.47	-1039.1	908.1	135.03	-1022.6	1070.4	481.96	-1036.1	1090	172.25	-1149.9	989.46	318.73	-916.31	699.36	491.91	-806.78	640.11	451.79	-873.38	619.93	470.63	-844.13	726.78	473.33	-795.46	544.48	449.04	-828.98	531.22	325.14	-798.24	352.99	463.34	-721.74	312.09	438.41	-775.15	279.74	457.1	-744.95	386.6	448.34	-719.09	116.53	423.49	-698.15	143.03	344.51	-747.84	62.631	374.49	-723.99	43.845	347.21	-732.6	41.596	408.44	NaN	NaN	NaN	-558.85	127.28	339.55	-511	171.69	385.99	-1098.4	713.92	151.83	-1036.2	607.12	181.67	-1101.3	623.89	171.49	-1031	692.92	155.78	-1118	518.34	198.57	-1117.7	521.53	323.93	-1225.5	360.89	199.53	-1188.5	260.02	230.61	-1247.3	294.85	215.84	-1171.8	329.86	212.37	-1283.7	120.81	246.99	-1264.3	121.89	332.89	-1343	97.454	294.44	-1337.9	65.141	324.96	-1339.4	73.474	261.65	-1167.3	40.325	230.38	-1150.8	37.878	346.49	-1083.3	44.737	298.84	-1111.1	1510.2	327.98	-1162.7	1226.1	329.3
